<svg xmlns="http://www.w3.org/2000/svg" xmlns:xlink="http://www.w3.org/1999/xlink" width="320" height="320" viewBox="0 0 320 320">
  <defs>
    <filter id="Rectangle_1" x="0" y="0" width="320" height="320" filterUnits="userSpaceOnUse">
      <feOffset dy="35" input="SourceAlpha"/>
      <feGaussianBlur stdDeviation="20" result="blur"/>
      <feFlood flood-opacity="0.161"/>
      <feComposite operator="in" in2="blur"/>
      <feComposite in="SourceGraphic"/>
    </filter>
    <filter id="Rectangle_2" x="35" y="20" width="250" height="250" filterUnits="userSpaceOnUse">
      <feOffset dy="20" input="SourceAlpha"/>
      <feGaussianBlur stdDeviation="15" result="blur-2"/>
      <feFlood flood-opacity="0.161"/>
      <feComposite operator="in" in2="blur-2"/>
      <feComposite in="SourceGraphic"/>
    </filter>
  </defs>
  <g id="education" transform="translate(530 2057)">
    <g transform="matrix(1, 0, 0, 1, -530, -2057)" filter="url(#Rectangle_1)">
      <g id="Rectangle_1-2" data-name="Rectangle 1" transform="translate(60 25)" fill="#fff" stroke="#ededed" stroke-width="1">
        <path d="M71,0h58a71,71,0,0,1,71,71v58a71,71,0,0,1-71,71H10A10,10,0,0,1,0,190V71A71,71,0,0,1,71,0Z" stroke="none"/>
        <path d="M71,.5h58A70.5,70.5,0,0,1,199.5,71v58A70.5,70.5,0,0,1,129,199.5H10A9.5,9.5,0,0,1,.5,190V71A70.5,70.5,0,0,1,71,.5Z" fill="none"/>
      </g>
    </g>
    <g transform="matrix(1, 0, 0, 1, -530, -2057)" filter="url(#Rectangle_2)">
      <rect id="Rectangle_2-2" data-name="Rectangle 2" width="160" height="160" rx="74" transform="translate(80 45)" fill="rgba(107,30,230,0.26)"/>
    </g>
  </g>
</svg>
