<svg xmlns="http://www.w3.org/2000/svg" xmlns:xlink="http://www.w3.org/1999/xlink" width="320" height="320" viewBox="0 0 320 320">
  <defs>
    <filter id="Path_15" x="0" y="0" width="320" height="320" filterUnits="userSpaceOnUse">
      <feOffset dy="35" input="SourceAlpha"/>
      <feGaussianBlur stdDeviation="20" result="blur"/>
      <feFlood flood-opacity="0.161"/>
      <feComposite operator="in" in2="blur"/>
      <feComposite in="SourceGraphic"/>
    </filter>
    <filter id="Path_16" x="35" y="20" width="250" height="250" filterUnits="userSpaceOnUse">
      <feOffset dy="20" input="SourceAlpha"/>
      <feGaussianBlur stdDeviation="15" result="blur-2"/>
      <feFlood flood-opacity="0.161"/>
      <feComposite operator="in" in2="blur-2"/>
      <feComposite in="SourceGraphic"/>
    </filter>
  </defs>
  <g id="public" transform="translate(530 2057)">
    <g transform="matrix(1, 0, 0, 1, -530, -2057)" filter="url(#Path_15)">
      <g id="Path_15-2" data-name="Path 15" transform="translate(60 25)" fill="#fff">
        <path d="M 129 199.5 L 10 199.5 C 4.761674880981445 199.5 0.5 195.2383270263672 0.5 190 L 0.5 71 C 0.5 61.48234939575195 2.363924980163574 52.24964904785156 6.040025234222412 43.55837631225586 C 7.806875228881836 39.38105010986328 9.993775367736816 35.35200119018555 12.53999996185303 31.5831241607666 C 15.06210041046143 27.84992408752441 17.95857429504395 24.33937454223633 21.14897537231445 21.14897537231445 C 24.33937454223633 17.95857429504395 27.84992408752441 15.06210041046143 31.5831241607666 12.53999996185303 C 35.35200119018555 9.993775367736816 39.38105010986328 7.806875228881836 43.55837631225586 6.040025234222412 C 52.24964904785156 2.363924980163574 61.48234939575195 0.5 71 0.5 L 129 0.5 C 138.5176544189453 0.5 147.7503509521484 2.363924980163574 156.4416198730469 6.040025234222412 C 160.6189575195312 7.806875228881836 164.6479949951172 9.993775367736816 168.4168701171875 12.53999996185303 C 172.1500701904297 15.06210041046143 175.6606292724609 17.95857429504395 178.8510284423828 21.14897537231445 C 182.0414276123047 24.33937454223633 184.9378967285156 27.84992408752441 187.4600067138672 31.5831241607666 C 190.0062255859375 35.35200119018555 192.1931304931641 39.38105010986328 193.9599761962891 43.55837631225586 C 197.6360778808594 52.24964904785156 199.5 61.48234939575195 199.5 71 L 199.5 129 C 199.5 138.5176544189453 197.6360778808594 147.7503509521484 193.9599761962891 156.4416198730469 C 192.1931304931641 160.6189575195312 190.0062255859375 164.6479949951172 187.4600067138672 168.4168701171875 C 184.9378967285156 172.1500701904297 182.0414276123047 175.6606292724609 178.8510284423828 178.8510284423828 C 175.6606292724609 182.0414276123047 172.1500701904297 184.9378967285156 168.4168701171875 187.4600067138672 C 164.6479949951172 190.0062255859375 160.6189575195312 192.1931304931641 156.4416198730469 193.9599761962891 C 147.7503509521484 197.6360778808594 138.5176544189453 199.5 129 199.5 Z" stroke="none"/>
        <path d="M 71 1 C 61.54963684082031 1 52.3824462890625 2.850662231445312 43.75315856933594 6.500518798828125 C 39.60557556152344 8.25482177734375 35.60516357421875 10.42617797851562 31.86302185058594 12.95431518554688 C 28.15620422363281 15.45860290527344 24.67042541503906 18.33462524414062 21.50253295898438 21.50253295898438 C 18.33462524414062 24.67042541503906 15.45860290527344 28.15620422363281 12.95431518554688 31.86302185058594 C 10.42617797851562 35.60516357421875 8.25482177734375 39.60557556152344 6.500518798828125 43.75315856933594 C 2.850662231445312 52.3824462890625 1 61.54963684082031 1 71 L 1 190 C 1 194.9626007080078 5.037399291992188 199 10 199 L 129 199 C 138.4503631591797 199 147.6175537109375 197.1493377685547 156.2468414306641 193.4994812011719 C 160.3944244384766 191.7451782226562 164.3948364257812 189.5738220214844 168.1369781494141 187.0456848144531 C 171.8437957763672 184.5413970947266 175.3295745849609 181.6653747558594 178.4974670410156 178.4974670410156 C 181.6653747558594 175.3295745849609 184.5413970947266 171.8437957763672 187.0456848144531 168.1369781494141 C 189.5738220214844 164.3948364257812 191.7451782226562 160.3944244384766 193.4994812011719 156.2468414306641 C 197.1493377685547 147.6175537109375 199 138.4503631591797 199 129 L 199 71 C 199 61.54963684082031 197.1493377685547 52.3824462890625 193.4994812011719 43.75315856933594 C 191.7451782226562 39.60557556152344 189.5738220214844 35.60516357421875 187.0456848144531 31.86302185058594 C 184.5413970947266 28.15620422363281 181.6653747558594 24.67042541503906 178.4974670410156 21.50253295898438 C 175.3295745849609 18.33462524414062 171.8437957763672 15.45860290527344 168.1369781494141 12.95431518554688 C 164.3948364257812 10.42617797851562 160.3944244384766 8.25482177734375 156.2468414306641 6.500518798828125 C 147.6175537109375 2.850662231445312 138.4503631591797 1 129 1 L 71 1 M 71 0 L 129 0 C 168.2122039794922 0 200 31.78779602050781 200 71 L 200 129 C 200 168.2122039794922 168.2122039794922 200 129 200 L 10 200 C 4.477157592773438 200 0 195.5228424072266 0 190 L 0 71 C 0 31.78779602050781 31.78779602050781 0 71 0 Z" stroke="none" fill="#ededed"/>
      </g>
    </g>
    <g transform="matrix(1, 0, 0, 1, -530, -2057)" filter="url(#Path_16)">
      <path id="Path_16-2" data-name="Path 16" d="M74,0H86a74,74,0,0,1,74,74V86a74,74,0,0,1-74,74H74A74,74,0,0,1,0,86V74A74,74,0,0,1,74,0Z" transform="translate(80 45)" fill="rgba(30,215,230,0.26)"/>
    </g>
  </g>
</svg>
